# xmcd
#
# Track frame offsets: 
#        150
#        12102
#        24587
#        38841
#        49628
#        62130
#        73768
#        85299
#        95459
#        108125
#        120191
#        131201
#        141347
#        153395
#        164942
#        177385
#        190221
#        202354
#        214674
#        227009
#
# Disc length: 3188 seconds
#
# Revision: 1
# Processed by: cddbd v1.5.2PL0 Copyright (c) Steve Scherf et al.
# Submitted via: ExactAudioCopyFreeDBPlugin 1.0
#
DISCID=220c7214
DTITLE=The Platters - The Ultimate Collection [CD 1 of 3]
DYEAR=2014
DGENRE=Oldies
TTITLE0=Only You (And You Alone) [1955]
TTITLE1=Twilight Time [1957]
TTITLE2=If I Didn't Care [1958]
TTITLE3=I'm Gonna Sit Right Down And Write Myself A Letter [1957]
TTITLE4=The Glory Of Love [1956]
TTITLE5=Heaven On Earth [1956]
TTITLE6=Whispering Grass (Don't Tell The Trees) [1961]
TTITLE7=Darktown Strutters' Ball [1957]
TTITLE8=Time And Tide [1957]
TTITLE9=Sleepy Lagoon [1959]
TTITLE10=It Isn't Right [1956]
TTITLE11=For The First Time (Come Prima) [1958]
TTITLE12=You'll Never Know [1960]
TTITLE13=Stormy Weather [1962]
TTITLE14=I Wish [1957]
TTITLE15=Remember When [1958]
TTITLE16=Wish It Were Me [1958]
TTITLE17=On My Word Of Honor [1956]
TTITLE18=Try A Little Tenderness [1959]
TTITLE19=I'll Be With You In Aplle Blossom Time [1960]
EXTD=YEAR: 2014
EXTT0=
EXTT1=
EXTT2=
EXTT3=
EXTT4=
EXTT5=
EXTT6=
EXTT7=
EXTT8=
EXTT9=
EXTT10=
EXTT11=
EXTT12=
EXTT13=
EXTT14=
EXTT15=
EXTT16=
EXTT17=
EXTT18=
EXTT19=
PLAYORDER=
